<svg xmlns="http://www.w3.org/2000/svg" style="display: none;">
    <symbol id="attach" viewBox="0 0 512 512">
      <path d="M464.714 34.786h-200.56v-4.892C264.154 13.41 250.744 0 234.26 0h-34.786C182.99 0 169.58 13.41 169.58 29.894v4.892h-48.374c-4.504 0-8.153 3.65-8.153 8.153v65.765H47.288c-4.504 0-8.153 3.65-8.153 8.153v304.368c0 .27.014.542.04.812.012.11.033.216.048.325.022.155.04.31.07.464.026.13.062.254.093.38.033.132.062.263.1.394.04.126.086.246.13.368.045.13.088.26.14.386.048.114.103.224.155.336.062.13.12.26.187.387.058.108.123.21.185.313.074.124.145.25.225.37.076.115.16.222.243.333.077.103.15.21.232.31.16.19.327.376.502.554.013.013.024.028.037.04l82.617 82.617.033.03c.18.177.368.348.565.51.09.075.188.14.282.21.12.09.236.183.36.266.11.075.227.14.34.208.114.068.226.14.344.203.117.063.238.116.358.173.122.058.24.118.366.17.116.048.236.087.354.13.133.047.263.098.398.138.12.037.24.063.36.093.138.035.274.073.413.1.14.028.28.044.422.064.122.017.242.04.365.052.267.025.536.04.804.04h239.152c4.504 0 8.153-3.65 8.153-8.154v-35.33h87.507c4.504 0 8.153-3.65 8.153-8.152V42.938c.002-4.502-3.647-8.152-8.15-8.152zm-278.828-4.892c0-7.493 6.095-13.588 13.588-13.588h34.786c7.493 0 13.588 6.095 13.588 13.588v4.892h-61.962v-4.892zm0 95.117h40.22v40.222h-40.22v-40.22zm37.478 56.527c-2.482 3.293-6.412 5.435-10.844 5.435h-13.045c-4.432 0-8.363-2.143-10.844-5.435h34.734zM129.36 51.09h40.22v57.615h-40.22V51.09zm-7.61 409.275v23.8l-54.78-54.78h54.781v30.98zm239.15 0v35.33H138.057V421.23c0-4.502-3.65-8.152-8.153-8.152H55.44V125.01H169.582v40.222H103.815c-4.504 0-8.153 3.65-8.153 8.153s3.65 8.153 8.154 8.153h66.906c3.56 12.53 15.098 21.74 28.755 21.74h13.045c13.657 0 25.196-9.208 28.755-21.74h75.602c4.504 0 8.153-3.65 8.153-8.153s-3.65-8.153-8.153-8.153h-74.463v-40.22h118.488v335.353zm95.662-8.153h-79.355V116.858c0-4.503-3.65-8.153-8.153-8.153h-126.64V69.028c0-4.503-3.65-8.153-8.154-8.153s-8.153 3.65-8.153 8.153v39.677h-40.22V51.09H456.56v401.122z"/><path d="M316.876 234.803H103.814c-4.504 0-8.153 3.65-8.153 8.153s3.65 8.153 8.154 8.153h213.063c4.503 0 8.152-3.65 8.152-8.154s-3.65-8.153-8.154-8.153zM316.876 304.374H103.814c-4.504 0-8.153 3.65-8.153 8.153s3.65 8.153 8.154 8.153h213.063c4.503 0 8.152-3.65 8.152-8.153s-3.65-8.153-8.154-8.153zM316.876 373.945H103.814c-4.504 0-8.153 3.65-8.153 8.153s3.65 8.153 8.154 8.153h213.063c4.503 0 8.152-3.65 8.152-8.152 0-4.503-3.65-8.153-8.154-8.153z"/>
    </symbol>
    <symbol id="browser" viewBox="0 0 512.853 512.853">
      <path d="M512 295.54V25.174C512 11.52 500.907.426 488.107.426H24.747C11.093.426 0 11.52 0 25.173v463.36c0 13.653 10.24 23.893 23.893 23.893h394.24c.378 0 .76-.004 1.214-.08 1.2-.143 2.31-.497 3.29-1.046l2.323-.58c11.093-4.267 23.04-8.533 33.28-17.067 34.987-27.307 54.613-69.12 54.613-117.76v-76.8c0-1.276-.31-2.474-.853-3.552zm-49.444-15.693c-15.41-6.442-28.324-14.394-39.302-21.713-2.56-1.707-6.827-1.707-9.387 0-20.48 13.653-45.227 28.16-81.92 32.427-4.267.854-7.68 4.268-7.68 8.534v42.667h-307.2V119.894h477.867V289.06c-11.996-2.122-22.716-5.348-32.378-9.213zM17.066 25.173c0-4.267 3.414-7.68 7.68-7.68h462.508c4.267 0 7.68 3.413 7.68 7.68v77.653H17.067V25.173zm0 459.947V358.827h230.4V495.36H27.307c-5.973 0-10.24-4.267-10.24-10.24zm247.467-126.293h59.733v17.067c0 1.52.02 3.033.057 4.54 1.183 46.7 20.636 86.767 53.703 113.22.767.59 1.535 1.156 2.302 1.707H264.533V358.828zm230.4 17.066c0 42.667-17.067 80.213-47.787 104.107-8.533 6.827-18.773 10.24-29.013 14.507-11.093-4.267-20.48-7.68-29.013-14.507-30.72-23.893-47.787-61.44-47.787-104.107v-69.12c33.28-5.973 57.173-18.773 76.8-31.573 19.627 12.8 43.52 26.453 76.8 31.573v69.12z"/><path d="M406.187 317.013l-34.133 17.067c-3.413 1.707-5.12 4.267-5.12 7.68v59.733c0 5.12 3.413 8.533 8.533 8.533s8.533-3.413 8.533-8.533V346.88l29.867-15.36c3.413-1.707 5.12-6.827 3.413-11.093-1.707-3.414-6.827-5.12-11.093-3.414zM59.733 26.027C40.96 26.027 25.6 41.387 25.6 60.16s15.36 34.133 34.133 34.133 34.133-15.36 34.133-34.133-15.36-34.133-34.133-34.133zm0 51.2c-9.387 0-17.067-7.68-17.067-17.067s7.68-17.067 17.067-17.067S76.8 50.773 76.8 60.16s-7.68 17.067-17.067 17.067zM136.533 26.027c-18.773 0-34.133 15.36-34.133 34.133s15.36 34.133 34.133 34.133c18.773 0 34.133-15.36 34.133-34.133s-15.36-34.133-34.133-34.133zm0 51.2c-9.387 0-17.067-7.68-17.067-17.067s7.68-17.067 17.067-17.067S153.6 50.773 153.6 60.16s-7.68 17.067-17.067 17.067zM213.333 26.027c-18.773 0-34.133 15.36-34.133 34.133s15.36 34.133 34.133 34.133c18.773 0 34.133-15.36 34.133-34.133s-15.36-34.133-34.133-34.133zm0 51.2c-9.387 0-17.067-7.68-17.067-17.067s7.68-17.067 17.067-17.067S230.4 50.773 230.4 60.16s-7.68 17.067-17.067 17.067zM221.867 418.56H169.58c-3.815-14.68-17.217-25.6-33.047-25.6-15.83 0-29.232 10.92-33.046 25.6h-60.82c-5.12 0-8.533 3.413-8.533 8.533s3.413 8.533 8.533 8.533h60.82c3.815 14.68 17.217 25.6 33.047 25.6 15.83 0 29.232-10.92 33.046-25.6h52.288c5.12 0 8.533-3.413 8.533-8.533s-3.413-8.533-8.533-8.533zm-85.334 25.6c-9.387 0-17.067-7.68-17.067-17.067s7.68-17.067 17.067-17.067 17.067 7.68 17.067 17.067-7.68 17.067-17.067 17.067zM51.2 154.027h110.933c5.12 0 8.533-3.413 8.533-8.533 0-5.12-3.413-8.533-8.533-8.533H51.2c-5.12 0-8.533 3.414-8.533 8.534 0 5.12 3.413 8.533 8.533 8.533zM196.267 154.027H281.6c5.12 0 8.533-3.413 8.533-8.533 0-5.12-3.413-8.533-8.533-8.533h-85.333c-5.12 0-8.533 3.414-8.533 8.534 0 5.12 3.413 8.533 8.533 8.533zM366.933 154.027H460.8c5.12 0 8.533-3.413 8.533-8.533 0-5.12-3.413-8.533-8.533-8.533h-93.867c-5.12 0-8.533 3.414-8.533 8.534 0 5.12 3.413 8.533 8.533 8.533zM315.733 154.027H332.8c5.12 0 8.533-3.413 8.533-8.533 0-5.12-3.413-8.533-8.533-8.533h-17.067c-5.12 0-8.533 3.414-8.533 8.534 0 5.12 3.413 8.533 8.533 8.533zM238.933 179.627c0 5.12 3.413 8.533 8.533 8.533H358.4c5.12 0 8.533-3.413 8.533-8.533s-3.413-8.533-8.533-8.533H247.467c-5.12 0-8.534 3.413-8.534 8.533zM221.867 179.627c0-5.12-3.413-8.533-8.533-8.533H93.867c-5.12 0-8.533 3.413-8.533 8.533s3.413 8.533 8.533 8.533h119.467c5.12 0 8.533-3.413 8.533-8.533zM51.2 188.16h8.533c5.12 0 8.533-3.413 8.533-8.533s-3.413-8.533-8.533-8.533H51.2c-5.12 0-8.533 3.413-8.533 8.533s3.413 8.533 8.533 8.533zM51.2 222.293H128c5.12 0 8.533-3.413 8.533-8.533 0-5.12-3.413-8.533-8.533-8.533H51.2c-5.12 0-8.533 3.413-8.533 8.533 0 5.12 3.413 8.533 8.533 8.533zM179.2 205.227h-17.067c-5.12 0-8.533 3.413-8.533 8.533 0 5.12 3.413 8.533 8.533 8.533H179.2c5.12 0 8.533-3.413 8.533-8.533 0-5.12-3.413-8.533-8.533-8.533zM213.333 222.293H332.8c5.12 0 8.533-3.413 8.533-8.533 0-5.12-3.413-8.533-8.533-8.533H213.333c-5.12 0-8.533 3.413-8.533 8.533 0 5.12 3.413 8.533 8.533 8.533zM51.2 256.427h110.933c5.12 0 8.533-3.413 8.533-8.533s-3.413-8.533-8.533-8.533H51.2c-5.12 0-8.533 3.414-8.533 8.534s3.413 8.533 8.533 8.533zM281.6 239.36h-85.333c-5.12 0-8.533 3.413-8.533 8.533s3.413 8.533 8.533 8.533H281.6c5.12 0 8.533-3.413 8.533-8.533s-3.413-8.533-8.533-8.533zM281.6 273.493h-34.133c-5.12 0-8.533 3.413-8.533 8.533s3.413 8.533 8.533 8.533H281.6c5.12 0 8.533-3.414 8.533-8.534s-3.413-8.533-8.533-8.533zM85.333 282.027c0 5.12 3.413 8.533 8.533 8.533h119.467c5.12 0 8.533-3.413 8.533-8.533s-3.413-8.533-8.533-8.533H93.867c-5.12 0-8.534 3.413-8.534 8.533zM51.2 290.56h8.533c5.12 0 8.533-3.413 8.533-8.533s-3.413-8.533-8.533-8.533H51.2c-5.12 0-8.533 3.413-8.533 8.533s3.413 8.533 8.533 8.533zM128 307.627H51.2c-5.12 0-8.533 3.413-8.533 8.533s3.413 8.533 8.533 8.533H128c5.12 0 8.533-3.413 8.533-8.533s-3.413-8.533-8.533-8.533zM179.2 307.627h-17.067c-5.12 0-8.533 3.413-8.533 8.533s3.413 8.533 8.533 8.533H179.2c5.12 0 8.533-3.413 8.533-8.533s-3.413-8.533-8.533-8.533zM273.067 307.627h-59.733c-5.12 0-8.533 3.413-8.533 8.533s3.414 8.533 8.534 8.533h59.733c5.12 0 8.533-3.413 8.533-8.533s-3.413-8.533-8.533-8.533zM375.467 239.36h-59.733c-5.12 0-8.533 3.413-8.533 8.533s3.414 8.533 8.534 8.533h59.733c5.12 0 8.533-3.413 8.533-8.533s-3.413-8.533-8.533-8.533zM460.8 171.093h-25.6c-5.12 0-8.533 3.413-8.533 8.533s3.413 8.533 8.533 8.533h25.6c5.12 0 8.533-3.414 8.533-8.534s-3.413-8.533-8.533-8.533zM392.533 171.093c-5.12 0-8.533 3.413-8.533 8.533s3.413 8.533 8.533 8.533h8.533c5.12 0 8.533-3.414 8.533-8.534s-3.414-8.533-8.534-8.533h-8.533zM418.133 205.227h-51.2c-5.12 0-8.533 3.413-8.533 8.533 0 5.12 3.413 8.533 8.533 8.533h51.2c5.12 0 8.533-3.413 8.533-8.533 0-5.12-3.413-8.533-8.533-8.533zM460.8 205.227h-8.533c-5.12 0-8.533 3.413-8.533 8.533 0 5.12 3.413 8.533 8.533 8.533h8.533c5.12 0 8.533-3.413 8.533-8.533 0-5.12-3.413-8.533-8.533-8.533z"/>
    </symbol>
    <symbol id="calculator" viewBox="0 0 512 512">
      <path d="M449.393 0H62.607c-16.713 0-30.31 13.597-30.31 30.31v451.38c0 16.713 13.598 30.31 30.31 30.31h386.786c16.713 0 30.31-13.598 30.31-30.31V30.31c0-16.713-13.597-30.31-30.31-30.31zM56.545 30.31c0-3.343 2.72-6.063 6.062-6.063h386.786c3.342 0 6.062 2.72 6.062 6.062v105.1H56.545V30.31zM173.35 487.75H62.607c-3.342.002-6.062-2.718-6.062-6.06V335.796H173.35V487.75zm0-176.2H56.545V159.656H173.35V311.55zm141.052 176.203H197.597V335.796h116.805v151.957zm0-176.204H197.597V159.656h116.805V311.55zm141.053 170.14c0 3.342-2.72 6.063-6.062 6.063H338.65V159.657h116.805V481.69z"/><path d="M144.92 223.48h-17.85v-17.85c0-6.696-5.427-12.124-12.123-12.124s-12.124 5.428-12.124 12.124v17.85h-17.85c-6.696 0-12.124 5.43-12.124 12.124s5.427 12.124 12.123 12.124h17.85v17.85c0 6.697 5.428 12.125 12.124 12.125s12.124-5.428 12.124-12.124v-17.852h17.85c6.697 0 12.125-5.43 12.125-12.124s-5.428-12.124-12.124-12.124zM286.573 223.48h-61.147c-6.696 0-12.124 5.43-12.124 12.124s5.428 12.124 12.124 12.124h61.147c6.695 0 12.124-5.43 12.124-12.124s-5.43-12.124-12.124-12.124zM132.093 411.806l14.635-14.635c4.734-4.733 4.734-12.41 0-17.146-4.734-4.733-12.41-4.733-17.147 0l-14.634 14.635-14.635-14.636c-4.733-4.733-12.41-4.733-17.146 0-4.734 4.734-4.734 12.41 0 17.147L97.8 411.807 83.165 426.44c-4.734 4.735-4.734 12.412 0 17.146 2.368 2.367 5.47 3.55 8.573 3.55 3.102 0 6.206-1.183 8.573-3.55l14.636-14.635 14.635 14.636c2.37 2.367 5.47 3.55 8.574 3.55s6.206-1.183 8.573-3.55c4.734-4.734 4.734-12.41 0-17.145l-14.634-14.634zM287.776 380.025c-4.736-4.733-12.41-4.733-17.147 0l-46.417 46.416c-4.733 4.735-4.733 12.412 0 17.148 2.37 2.367 5.47 3.55 8.574 3.55s6.206-1.184 8.573-3.55l46.416-46.416c4.734-4.735 4.734-12.412 0-17.147z"/><circle cx="232.787" cy="388.601" r="10.342"/><circle cx="279.209" cy="435.011" r="10.34"/><path d="M427.684 290.423h-61.97c-6.696 0-12.125 5.428-12.125 12.124 0 6.695 5.428 12.124 12.123 12.124h61.97c6.696 0 12.125-5.428 12.125-12.123 0-6.696-5.428-12.124-12.124-12.124zM427.684 332.74h-61.97c-6.696 0-12.125 5.428-12.125 12.123 0 6.695 5.428 12.124 12.123 12.124h61.97c6.696 0 12.125-5.43 12.125-12.124 0-6.695-5.428-12.124-12.124-12.124z"/>
    </symbol>
    <symbol id="clock" viewBox="0 0 512.001 512.001">
      <path d="M256 93.55c-6.382 0-11.558 5.175-11.558 11.558v14.313c0 6.384 5.175 11.56 11.56 11.56 6.382 0 11.558-5.176 11.558-11.56V105.11c0-6.382-5.176-11.56-11.56-11.56zM256 381.02c-6.382 0-11.558 5.177-11.558 11.56v14.313c0 6.383 5.176 11.56 11.56 11.56 6.382 0 11.558-5.177 11.558-11.56V392.58c0-6.384-5.176-11.56-11.56-11.56zM406.893 244.44H392.58c-6.384 0-11.56 5.176-11.56 11.56 0 6.383 5.177 11.56 11.56 11.56h14.313c6.383 0 11.56-5.177 11.56-11.56 0-6.382-5.177-11.56-11.56-11.56zM119.42 244.44H105.11c-6.383 0-11.56 5.177-11.56 11.56 0 6.383 5.177 11.56 11.56 11.56h14.313c6.384 0 11.56-5.177 11.56-11.56 0-6.382-5.176-11.56-11.56-11.56zM337.226 115.314c-5.53-3.192-12.598-1.298-15.79 4.23l-7.155 12.396c-3.192 5.53-1.297 12.598 4.232 15.79 1.82 1.05 3.808 1.55 5.768 1.55 3.995 0 7.88-2.073 10.022-5.78l7.155-12.396c3.192-5.53 1.297-12.598-4.23-15.79zM193.49 364.272c-5.53-3.19-12.6-1.297-15.79 4.23l-7.155 12.396c-3.193 5.53-1.298 12.598 4.23 15.79 1.822 1.05 3.81 1.55 5.77 1.55 3.994 0 7.88-2.073 10.02-5.78l7.156-12.396c3.193-5.53 1.3-12.6-4.23-15.79zM392.456 321.436l-12.395-7.155c-5.53-3.193-12.597-1.296-15.79 4.232-3.192 5.53-1.297 12.598 4.232 15.79l12.395 7.155c1.82 1.05 3.808 1.55 5.768 1.55 3.995 0 7.88-2.073 10.022-5.78 3.192-5.53 1.298-12.6-4.23-15.79zM143.5 177.7l-12.396-7.156c-5.53-3.192-12.6-1.298-15.79 4.23-3.193 5.53-1.298 12.6 4.23 15.79l12.396 7.156c1.82 1.05 3.808 1.55 5.768 1.55 3.995 0 7.88-2.073 10.022-5.78 3.19-5.53 1.298-12.6-4.23-15.79zM396.687 174.774c-3.19-5.526-10.256-7.423-15.79-4.23l-12.395 7.154c-5.53 3.192-7.423 10.26-4.23 15.79 2.14 3.708 6.025 5.782 10.02 5.782 1.96 0 3.948-.5 5.77-1.55l12.394-7.156c5.53-3.19 7.424-10.26 4.23-15.79zM147.73 318.51c-3.19-5.525-10.26-7.422-15.79-4.23l-12.396 7.155c-5.53 3.19-7.423 10.26-4.23 15.79 2.14 3.708 6.025 5.782 10.02 5.782 1.96 0 3.948-.5 5.77-1.55l12.394-7.156c5.53-3.19 7.424-10.26 4.23-15.79zM341.456 380.897l-7.155-12.395c-3.19-5.528-10.255-7.423-15.79-4.23-5.528 3.19-7.422 10.26-4.23 15.79l7.155 12.394c2.14 3.708 6.026 5.782 10.022 5.782 1.96 0 3.948-.5 5.768-1.55 5.53-3.192 7.424-10.262 4.23-15.79zM197.72 131.94l-7.156-12.395c-3.19-5.526-10.256-7.423-15.79-4.23-5.53 3.19-7.423 10.26-4.23 15.79l7.154 12.394c2.14 3.707 6.026 5.78 10.022 5.78 1.96 0 3.947-.5 5.768-1.55 5.53-3.192 7.424-10.262 4.23-15.79z"/><path d="M256 52.2C143.626 52.2 52.203 143.626 52.203 256s91.423 203.8 203.8 203.8S459.8 368.376 459.8 256 368.376 52.2 256 52.2zm0 384.48c-99.626 0-180.68-81.052-180.68-180.68S156.373 75.32 256 75.32 436.683 156.373 436.683 256s-81.054 180.68-180.68 180.68z"/><path d="M457.12 97.603c-3.953-5.012-11.224-5.87-16.235-1.92-5.013 3.955-5.872 11.223-1.918 16.236 32.655 41.405 49.915 91.228 49.915 144.08 0 128.412-104.47 232.882-232.882 232.882S23.118 384.412 23.118 256.002 127.588 23.117 256 23.117c52.823 0 102.622 17.24 144.018 49.86 5.017 3.953 12.283 3.088 16.234-1.926 3.95-5.014 3.09-12.283-1.925-16.234C368.812 18.956 314.065 0 256 0 187.62 0 123.335 26.63 74.98 74.98 26.63 123.335 0 187.62 0 256s26.63 132.667 74.98 181.02c48.354 48.353 112.64 74.982 181.02 74.982s132.667-26.63 181.02-74.98c48.353-48.354 74.982-112.64 74.982-181.02-.002-58.1-18.98-112.873-54.883-158.4z"/><path d="M324.203 309.242l-43.407-43.417c1.148-2.967 1.784-6.188 1.784-9.555v-67.704c0-14.656-11.923-26.578-26.58-26.578-14.655 0-26.577 11.922-26.577 26.578v41.126h-36.995c-14.657 0-26.586 11.93-26.586 26.586 0 14.657 11.93 26.586 26.586 26.586h63.575c.17 0 .335-.014.5-.028 3.025-.057 5.93-.614 8.63-1.604l43.544 43.534c2.138 2.15 4.947 3.225 7.756 3.225 2.822 0 5.63-1.074 7.77-3.224 4.288-4.288 4.288-11.236 0-15.524zm-131.774-48.34c-2.556 0-4.625-2.08-4.625-4.624s2.07-4.624 4.624-4.624h36.994v4.616c0 1.58.147 3.127.413 4.632H192.43zm68.187-4.632c0 2.545-2.07 4.617-4.617 4.617-2.545 0-4.616-2.07-4.616-4.617v-67.704c0-2.545 2.07-4.616 4.616-4.616 2.545 0 4.617 2.07 4.617 4.616v67.704z"/>
    </symbol>
    <symbol id="copyright" viewBox="0 0 295.239 295.239">
      <path d="M276.19 157.143V100h-17.92c-2.666-10.357-6.76-20.233-12.213-29.462l12.676-12.68-40.4-40.4-12.68 12.675c-9.23-5.452-19.106-9.552-29.463-12.214V0h-57.143v17.92c-10.357 2.666-20.233 6.76-29.462 12.213l-12.68-12.676-40.4 40.4 12.676 12.68c-5.45 9.23-9.55 19.106-12.213 29.463h-17.92v57.143h17.92c2.667 10.357 6.762 20.233 12.214 29.462l-12.675 12.68 40.4 40.4 12.686-12.68c.387.224.82.452 1.215.676-.21 1.058-.33 2.153-.33 3.272 0 5.97 3.187 11.18 7.92 14.124-1.967 2.738-3.157 6.067-3.157 9.686 0 5.97 3.186 11.18 7.92 14.124-1.968 2.738-3.158 6.067-3.158 9.686 0 9.19 7.476 16.667 16.667 16.667h61.905c9.19 0 16.667-7.477 16.667-16.668 0-3.62-1.19-6.948-3.158-9.686 4.733-2.943 7.92-8.152 7.92-14.124 0-3.62-1.19-6.948-3.158-9.686 4.733-2.943 7.92-8.152 7.92-14.124 0-1.12-.12-2.214-.33-3.27.395-.225.83-.453 1.214-.677l12.686 12.68 40.4-40.4-12.676-12.68c5.457-9.23 9.552-19.105 12.214-29.462h17.918zm-97.62 128.57h-61.904c-3.938 0-7.143-3.204-7.143-7.142s3.205-7.142 7.143-7.142h61.905c3.94 0 7.144 3.205 7.144 7.143 0 3.94-3.204 7.144-7.143 7.144zm4.763-23.808h-71.428c-3.938 0-7.143-3.205-7.143-7.143 0-3.938 3.206-7.143 7.144-7.143h71.43c3.937 0 7.142 3.204 7.142 7.142s-3.205 7.143-7.143 7.143zm4.763-23.81H107.144c-3.94 0-7.144-3.205-7.144-7.143 0-3.938 3.205-7.143 7.143-7.143h80.952c3.938 0 7.143 3.204 7.143 7.142s-3.204 7.143-7.142 7.143zm-2.153-23.81h-76.648c-1.133-11.818-6.486-22.947-15.352-31.747-16.995-16.852-24.957-40.243-21.852-64.18C76.535 84.2 104.63 56.65 138.906 52.86c22.03-2.462 43.162 4.28 59.514 18.933 16.137 14.443 25.39 35.138 25.39 56.776 0 20.587-8.125 39.882-22.877 54.32-8.532 8.353-13.852 19.59-14.99 31.396zm63.924-62.937c-2.633 11.876-7.29 23.114-13.848 33.41l-2.053 3.224 11.3 11.305-26.933 26.933-11.31-11.305-3.224 2.062c-1.224.78-2.49 1.548-3.83 2.314-1.313-1.337-2.875-2.41-4.58-3.247.738-9.886 5.07-19.357 12.205-26.343 16.595-16.248 25.738-37.957 25.738-61.13 0-24.337-10.41-47.623-28.552-63.87-18.394-16.47-42.137-24.052-66.923-21.305-38.58 4.267-70.21 35.28-75.205 73.733-3.495 26.9 5.462 53.21 24.586 72.167 7.47 7.424 11.857 16.824 12.605 26.743-1.7.838-3.262 1.91-4.576 3.248-1.338-.767-2.605-1.533-3.83-2.314l-3.223-2.062-11.31 11.305-26.933-26.933 11.3-11.305-2.05-3.224c-6.558-10.29-11.215-21.53-13.85-33.41l-.828-3.724h-15.97v-38.096h15.97l.83-3.73c2.632-11.875 7.29-23.113 13.847-33.41l2.05-3.223-11.3-11.304 26.934-26.933 11.305 11.3 3.223-2.052c10.29-6.556 21.53-11.213 33.41-13.847l3.73-.83V9.524h38.094v15.972l3.73.83c11.875 2.632 23.113 7.29 33.41 13.847l3.223 2.052 11.305-11.3 26.933 26.933-11.3 11.305 2.052 3.224c6.557 10.29 11.214 21.53 13.848 33.41l.83 3.73h15.97v38.094h-15.97l-.83 3.728z"/><path d="M152.38 80.952h-9.523c-18.376 0-33.333 14.957-33.333 33.333v28.57c0 18.377 14.957 33.334 33.333 33.334h9.524c18.377 0 33.334-14.958 33.334-33.334v-9.524h-28.57v9.524c0 2.63-2.134 4.762-4.763 4.762h-9.523c-2.63 0-4.762-2.133-4.762-4.762v-28.57c0-2.63 2.133-4.763 4.762-4.763h9.524c2.63 0 4.763 2.133 4.763 4.762v9.524h28.57v-9.525c0-18.375-14.955-33.333-33.332-33.333zm14.287 33.334c0-7.876-6.41-14.286-14.286-14.286h-9.523c-7.876 0-14.286 6.41-14.286 14.286v28.57c0 7.877 6.41 14.287 14.287 14.287h9.524c7.877 0 14.287-6.41 14.287-14.286h9.524c0 13.13-10.68 23.81-23.81 23.81h-9.523c-13.13 0-23.81-10.68-23.81-23.81v-28.57c0-13.13 10.68-23.81 23.81-23.81h9.524c13.13 0 23.81 10.68 23.81 23.81h-9.523z"/>
    </symbol>
    <symbol id="diploma" viewBox="0 0 469.5 469.5">
      <path d="M416.25 97c4.142 0 7.5-3.358 7.5-7.5V36.95C423.75 16.576 406.852 0 386.08 0H83.15c-20.972 0-37.4 16.23-37.4 36.95v335.1c0 20.926 16.777 37.95 37.4 37.95h73.6v52c0 2.6 1.346 5.013 3.557 6.38s4.973 1.49 7.297.328l36.646-18.323 36.646 18.323c1.06.53 2.208.792 3.354.792 1.372 0 2.74-.376 3.943-1.12 2.21-1.367 3.557-3.78 3.557-6.38v-52.013l134.33-.237c20.772 0 37.67-16.912 37.67-37.7V319.5c0-4.142-3.358-7.5-7.5-7.5h-52.5V97h52.5zm-7.5-60.05V82h-45V37.45c0-12.33 10.023-22.398 22.345-22.45 12.494.008 22.655 9.852 22.655 21.95zM240.718 340.384c-1.05.562-1.948 1.367-2.625 2.34-9.41 7.824-21.24 12.126-33.493 12.126-13.013 0-25.507-4.817-35.176-13.56-11.01-9.967-17.324-24.16-17.324-38.94 0-28.95 23.55-52.5 52.5-52.5s52.5 23.55 52.5 52.5c0 14.38-5.954 28.125-16.382 38.034zm-3.968 109.48l-29.146-14.572c-2.11-1.056-4.597-1.056-6.708 0l-29.146 14.573V361.3c9.97 5.57 21.248 8.55 32.85 8.55 11.314 0 22.348-2.844 32.15-8.168v88.183zm15-99.263c12.972-12.678 20.35-30.07 20.35-48.25 0-37.22-30.28-67.5-67.5-67.5s-67.5 30.28-67.5 67.5c0 17.806 7.12 34.943 19.65 47.57V395h-73.6c-12.352 0-22.4-10.295-22.4-22.95V36.95c0-12.31 9.84-21.95 22.4-21.95h273.108c-4.71 6.264-7.508 14.04-7.508 22.45v334.6c0 8.535 2.846 16.42 7.626 22.752l-104.626.185V350.6zm157-23.6v45.05c0 12.298-10.37 22.688-22.662 22.7-12.32-.056-22.338-10.234-22.338-22.7V327h45z"/><path d="M204.6 264.85c-20.678 0-37.5 16.822-37.5 37.5s16.822 37.5 37.5 37.5 37.5-16.822 37.5-37.5-16.822-37.5-37.5-37.5zm0 60c-12.407 0-22.5-10.093-22.5-22.5s10.093-22.5 22.5-22.5 22.5 10.093 22.5 22.5-10.093 22.5-22.5 22.5zM304.75 152h-200c-4.142 0-7.5 3.358-7.5 7.5s3.358 7.5 7.5 7.5h200c4.142 0 7.5-3.358 7.5-7.5s-3.358-7.5-7.5-7.5zM274.75 182h-140c-4.142 0-7.5 3.358-7.5 7.5s3.358 7.5 7.5 7.5h140c4.142 0 7.5-3.358 7.5-7.5s-3.358-7.5-7.5-7.5zM304.75 122h-30c-4.142 0-7.5 3.358-7.5 7.5s3.358 7.5 7.5 7.5h30c4.142 0 7.5-3.358 7.5-7.5s-3.358-7.5-7.5-7.5zM104.75 137h140c4.142 0 7.5-3.358 7.5-7.5s-3.358-7.5-7.5-7.5h-140c-4.142 0-7.5 3.358-7.5 7.5s3.358 7.5 7.5 7.5zM129.995 95.59c1.37 1.064 2.99 1.58 4.6 1.58 2.235 0 4.446-.995 5.925-2.895l17.42-22.39 17.41 22.388c1.42 1.827 3.605 2.896 5.92 2.896 2.314 0 4.5-1.07 5.92-2.896l17.418-22.39 17.41 22.388c1.422 1.827 3.607 2.896 5.92 2.896s4.5-1.07 5.92-2.896l17.41-22.387 17.41 22.387c2.543 3.27 7.255 3.86 10.525 1.316 3.27-2.543 3.86-7.255 1.316-10.524l-23.33-30c-1.422-1.827-3.607-2.896-5.92-2.896s-4.5 1.07-5.92 2.896L227.94 77.45l-17.41-22.386c-1.422-1.827-3.606-2.896-5.92-2.896-2.315 0-4.5 1.068-5.92 2.895l-17.42 22.39-17.41-22.387c-1.42-1.827-3.605-2.896-5.92-2.896-2.314 0-4.5 1.068-5.92 2.895l-23.34 30c-2.543 3.27-1.954 7.98 1.315 10.524z"/>
    </symbol>
    <symbol id="file" viewBox="0 0 512.036 512.036">
      <path d="M511.844 114.946c-.456-2.68-1.913-4.76-4.076-5.962L403.053 4.268C401.85 2.105 399.77.648 397.09.192c-.764-.172-1.552-.226-2.353-.156H53.895c-15.27 0-26.947 11.677-26.947 26.947v266.37c-5.75 11.82-8.982 25.067-8.982 39.033v35.93H8.982C3.592 368.316 0 371.91 0 377.3v125.754c0 5.39 3.593 8.982 8.982 8.982h197.614c5.39 0 8.982-3.593 8.982-8.982V449.16h269.474c15.27 0 26.947-11.678 26.947-26.948V117.3c.07-.802.016-1.59-.156-2.354zm-30.384-7.12h-68.267c-5.39 0-8.982-3.593-8.982-8.982V30.577l77.25 77.25zM35.93 332.386c0-10.934 2.485-21.314 6.903-30.616.463-.516.866-1.088 1.182-1.72 10.55-20.346 29.32-34.365 51.003-38.355.23-.042.46-.085.692-.125.626-.11 1.255-.21 1.886-.302.753-.108 1.51-.206 2.27-.29.44-.05.884-.09 1.327-.133.79-.073 1.585-.136 2.384-.183.327-.02.654-.037.982-.052 1.07-.048 2.147-.082 3.23-.082 39.524 0 71.86 32.337 71.86 71.86v35.93h-17.964v-35.93c0-29.642-24.253-53.895-53.895-53.895-29.64 0-53.894 24.253-53.894 53.895v35.93H35.93v-35.93zm35.93 35.93v-35.93c0-19.76 16.168-35.93 35.93-35.93s35.93 16.17 35.93 35.93v35.93H71.86zm125.754 125.756H17.964v-107.79h179.65v107.79zm296.42-71.86c0 5.39-3.592 8.982-8.98 8.982H215.578V377.3c0-5.39-3.594-8.982-8.983-8.982h-8.982v-35.93c0-49.404-40.42-89.825-89.825-89.825-.76 0-1.518.01-2.274.03-23.525.59-44.874 10.348-60.603 25.808V26.985c0-5.39 3.593-8.982 8.982-8.982h332.35v80.842c0 15.27 11.678 26.947 26.948 26.947h80.842v296.422z"/><path d="M233.544 89.86h-107.79c-5.39 0-8.982 3.594-8.982 8.983s3.593 8.982 8.982 8.982h107.79c5.388 0 8.98-3.593 8.98-8.982s-3.59-8.982-8.98-8.982zM80.842 107.826h8.982c5.39 0 8.982-3.593 8.982-8.982s-3.593-8.982-8.982-8.982h-8.982c-5.39 0-8.982 3.593-8.982 8.982s3.593 8.982 8.982 8.982zM224.56 125.79h-35.93c-5.388 0-8.98 3.594-8.98 8.983 0 5.39 3.592 8.982 8.98 8.982h35.93c5.39 0 8.983-3.593 8.983-8.982 0-5.39-3.592-8.982-8.982-8.982zM224.56 161.72h-17.964c-5.39 0-8.982 3.594-8.982 8.983 0 5.39 3.593 8.982 8.982 8.982h17.965c5.39 0 8.983-3.593 8.983-8.982 0-5.39-3.592-8.982-8.982-8.982zM80.842 143.756h71.86c5.39 0 8.982-3.593 8.982-8.982 0-5.39-3.593-8.982-8.982-8.982h-71.86c-5.39 0-8.982 3.593-8.982 8.982 0 5.39 3.593 8.982 8.982 8.982zM179.65 170.703c0-5.39-3.594-8.982-8.983-8.982H80.842c-5.39 0-8.982 3.594-8.982 8.983 0 5.39 3.593 8.982 8.982 8.982h89.825c5.39 0 8.982-3.592 8.982-8.982zM206.596 71.896h17.965c5.39 0 8.983-3.593 8.983-8.982s-3.593-8.982-8.982-8.982h-17.964c-5.39 0-8.982 3.593-8.982 8.982s3.593 8.982 8.982 8.982zM80.842 71.896h89.825c5.39 0 8.982-3.593 8.982-8.982s-3.594-8.982-8.983-8.982H80.842c-5.39 0-8.982 3.593-8.982 8.982s3.593 8.982 8.982 8.982zM233.544 197.65h-107.79c-5.39 0-8.982 3.593-8.982 8.982s3.593 8.982 8.982 8.982h107.79c5.388 0 8.98-3.593 8.98-8.982s-3.59-8.982-8.98-8.982zM89.825 197.65h-8.982c-5.39 0-8.982 3.593-8.982 8.982s3.594 8.982 8.983 8.982h8.982c5.39 0 8.982-3.593 8.982-8.982s-3.593-8.982-8.982-8.982zM422.175 251.545c0-5.39-3.593-8.982-8.982-8.982H368.28c-5.388 0-8.98 3.593-8.98 8.982s3.592 8.982 8.98 8.982h44.913c5.39 0 8.982-3.592 8.982-8.982zM323.368 260.528h8.982c5.39 0 8.982-3.593 8.982-8.982s-3.593-8.982-8.982-8.982h-8.982c-5.39 0-8.982 3.593-8.982 8.982s3.593 8.982 8.982 8.982zM359.298 287.475h-35.93c-5.39 0-8.982 3.593-8.982 8.982 0 5.39 3.593 8.982 8.982 8.982h35.93c5.39 0 8.982-3.594 8.982-8.983 0-5.39-3.592-8.982-8.982-8.982zM413.193 287.475h-17.965c-5.39 0-8.982 3.593-8.982 8.982 0 5.39 3.593 8.982 8.982 8.982h17.965c5.39 0 8.982-3.594 8.982-8.983 0-5.39-3.593-8.982-8.982-8.982z"/><path d="M269.474 206.633V341.37c0 5.39 3.593 8.982 8.982 8.982H419.48l33.236 25.15c1.796.9 3.593 1.798 5.39 1.798s2.694 0 3.592-.898c3.593-1.797 5.39-4.49 5.39-8.084V206.633c0-5.39-3.594-8.982-8.983-8.982h-179.65c-5.388 0-8.98 3.593-8.98 8.983zm17.965 8.982h161.683v134.737l-21.558-16.168c-1.796-.898-3.593-1.797-5.39-1.797H287.44V215.615zM125.754 422.212h-35.93c-5.39 0-8.982 3.593-8.982 8.982s3.593 8.982 8.982 8.982h8.982v17.965c0 5.39 3.593 8.983 8.982 8.983s8.982-3.593 8.982-8.982v-17.964h8.982c5.39 0 8.982-3.593 8.982-8.982s-3.59-8.982-8.98-8.982z"/>
    </symbol>
    <symbol id="handshake" viewBox="0 0 512.003 512.003">
      <path d="M509.605 171.075l-99.3-99.3c-3.193-3.195-8.37-3.195-11.565 0l-49.65 49.65c-1.533 1.532-2.394 3.612-2.394 5.78 0 2.17.86 4.25 2.394 5.783l4.953 4.953-11.382 11.38c-7.388 7.387-18.853 9.403-28.527 5.012-9.07-4.117-19.153-6.292-29.16-6.292-11.884 0-23.497 2.983-33.815 8.633-4.303-1.06-8.72-1.603-13.18-1.603-6.45 0-12.784 1.113-18.828 3.31-9.65 3.506-19.996 1.333-27.003-5.672L171.71 132.27l2.434-2.434c1.533-1.533 2.394-3.613 2.394-5.782 0-2.17-.86-4.25-2.394-5.782l-49.65-49.65c-3.195-3.194-8.37-3.194-11.565 0L2.394 179.156c-3.193 3.194-3.193 8.37 0 11.564l49.65 49.65c1.533 1.534 3.612 2.395 5.782 2.395s4.248-.86 5.783-2.395l2.96-2.96 14.415 14.413c3.637 3.637 6.048 8.178 6.97 13.13 4.787 25.684 17.087 49.033 35.57 67.527l2.716 2.715c-5.213 5.49-8.08 12.645-8.08 20.245 0 7.86 3.06 15.252 8.62 20.81 5.737 5.74 13.272 8.607 20.81 8.607.49 0 .98-.013 1.47-.038-.397 8.018 2.46 16.17 8.57 22.28 5.558 5.56 12.95 8.62 20.81 8.62.22 0 .437-.01.656-.015-.168 7.75 2.69 15.552 8.59 21.453 5.56 5.56 12.95 8.62 20.813 8.62 7.86 0 15.25-3.062 20.81-8.62.468-.468.91-.952 1.34-1.442 2.895 1.01 5.957 1.546 9.052 1.546 7.353 0 14.26-2.865 19.44-8.062 2.758-2.756 4.85-5.998 6.212-9.53l.837.838c5.36 5.36 12.4 8.04 19.438 8.04 7.04 0 14.078-2.68 19.437-8.04 2.848-2.848 4.988-6.21 6.344-9.878 4.796 3.49 10.475 5.236 16.157 5.236 7.04 0 14.082-2.68 19.446-8.036 5.19-5.19 8.05-12.097 8.05-19.445 0-2.22-.266-4.397-.773-6.502 5.237-1.064 10.05-3.635 13.91-7.5 5.19-5.192 8.05-12.095 8.05-19.438 0-5.785-1.782-11.292-5.073-15.91l6.56-6.56c18.7-18.708 31.052-42.35 35.725-68.37.783-4.358 2.94-8.405 6.243-11.708L444.103 228l4.29 4.288c1.596 1.597 3.69 2.395 5.782 2.395s4.186-.798 5.783-2.395l49.65-49.65c1.533-1.533 2.394-3.613 2.394-5.782s-.864-4.247-2.397-5.78zm-451.778 51.95L19.74 184.94l98.97-98.97 38.087 38.086-98.97 98.97zm99.01 141.664c-5.098 5.095-13.393 5.097-18.494 0-2.47-2.472-3.83-5.755-3.83-9.248 0-3.492 1.36-6.776 3.83-9.246 2.55-2.55 5.897-3.824 9.246-3.824 3.347 0 6.697 1.275 9.245 3.824 5.098 5.098 5.098 13.394 0 18.493zm30.847 30.847c-2.468 2.47-5.75 3.83-9.246 3.83-3.492 0-6.776-1.36-9.245-3.83-5.1-5.098-5.1-13.394 0-18.493 2.55-2.55 5.896-3.824 9.246-3.824 3.346 0 6.696 1.275 9.244 3.824 5.1 5.098 5.1 13.395 0 18.493zm30.058 30.057c-2.47 2.47-5.753 3.83-9.245 3.83-3.493 0-6.777-1.36-9.246-3.83-5.098-5.098-5.098-13.394 0-18.493 2.55-2.548 5.897-3.823 9.247-3.823 3.347 0 6.697 1.275 9.245 3.824 5.1 5.1 5.1 13.396 0 18.494zm138.888-62.772c-2.102 2.104-4.897 3.263-7.87 3.263s-5.766-1.16-7.872-3.268l-79.33-79.312c-3.196-3.193-8.372-3.192-11.565.002-3.192 3.193-3.19 8.37.002 11.564l85.45 85.443c2.104 2.102 3.26 4.898 3.26 7.872 0 2.98-1.157 5.78-3.256 7.878-4.348 4.343-11.417 4.344-15.757.003l-14.416-14.416c-.08-.083-.158-.167-.24-.25-.025-.023-.052-.044-.077-.068l-66.267-66.267c-3.195-3.193-8.37-3.193-11.565 0-3.194 3.193-3.194 8.37 0 11.564l66.48 66.478c2.032 2.083 3.15 4.84 3.15 7.763 0 2.975-1.158 5.77-3.26 7.873-4.338 4.34-11.4 4.34-15.743 0l-72.085-72.086c-3.195-3.194-8.37-3.194-11.565 0-3.194 3.193-3.194 8.37 0 11.564l53.434 53.436c.014.015.026.032.042.046 2.1 2.097 3.257 4.888 3.257 7.86 0 2.972-1.16 5.768-3.27 7.88-2.1 2.103-4.893 3.262-7.87 3.262-.72 0-1.422-.074-2.11-.204 1.323-8.913-1.436-18.32-8.282-25.167-5.56-5.558-12.95-8.62-20.81-8.62-.22 0-.438.01-.657.016.17-7.75-2.69-15.553-8.59-21.454-5.56-5.558-12.95-8.62-20.812-8.62-.492 0-.98.012-1.47.036.394-8.014-2.462-16.158-8.57-22.266-7.433-7.433-17.883-10.044-27.443-7.847l-5.864-5.865c-16.14-16.147-26.877-36.535-31.056-58.96-1.53-8.213-5.502-15.717-11.483-21.7l-14.414-14.414 82.01-82.01 20.438 20.44c7.856 7.855 18.552 12.06 29.507 12.06 4.907 0 9.868-.845 14.647-2.582 2.318-.843 4.715-1.448 7.144-1.832l-50.63 50.633c-6.196 6.193-9.608 14.43-9.608 23.19 0 8.76 3.412 16.996 9.606 23.19 6.394 6.394 14.79 9.59 23.19 9.59 8.398 0 16.797-3.2 23.192-9.59l25.43-25.43 6.883 6.888.005.005.286.286.275.274.004.004.005.005c.078.078.155.152.232.226l95.88 95.88c2.104 2.102 3.26 4.898 3.26 7.872 0 2.98-1.156 5.775-3.262 7.88zm51.507-121.988c-5.674 5.675-9.4 12.723-10.774 20.38-4.08 22.72-14.867 43.365-31.193 59.7l-6.284 6.284-51.73-51.73c1.123.082 2.252.137 3.39.137 5.237 0 10.597-.918 15.933-3.1 4.18-1.71 6.18-6.486 4.47-10.665-1.71-4.18-6.48-6.182-10.663-4.472-21.046 8.61-46.278-15.12-49.087-17.855l-.142-.135-.29-.29s-.002 0-.003-.002l-.253-.252-.005-.004-6.884-6.89 7.806-7.806c3.194-3.194 3.194-8.37 0-11.565-3.194-3.193-8.37-3.194-11.564 0l-13.57 13.57-.016.014-.015.016-31.2 31.2c-6.412 6.41-16.842 6.41-23.252 0-3.105-3.105-4.815-7.234-4.815-11.626 0-4.392 1.71-8.52 4.816-11.626l53.852-53.854c2.996-2.995 6.326-5.63 9.905-7.837 8.504-5.256 18.325-8.034 28.402-8.034 7.693 0 15.44 1.67 22.403 4.83 15.842 7.19 34.67 3.84 46.85-8.337l11.384-11.38 66.928 66.928-24.4 24.4zm46.035-25.89l-87.736-87.736 38.087-38.086 87.736 87.736-38.088 38.086z"/><circle cx="462.41" cy="183.11" r="8.177"/><circle cx="53.567" cy="191.189" r="8.177"/>
    </symbol>
    <symbol id="home" viewBox="0 0 512 512">
      <path d="M506.555 208.064L263.86 30.367c-4.68-3.426-11.04-3.426-15.717 0L5.445 208.064c-5.928 4.34-7.216 12.665-2.875 18.593s12.666 7.214 18.593 2.875L256 57.588 490.837 229.53c2.368 1.736 5.12 2.57 7.848 2.57 4.096 0 8.138-1.884 10.744-5.444 4.34-5.927 3.053-14.25-2.875-18.592zM442.246 232.543c-7.346 0-13.303 5.956-13.303 13.303v211.75H322.52V342.008c0-36.68-29.84-66.52-66.52-66.52s-66.52 29.84-66.52 66.52v115.586H83.06v-211.75c0-7.346-5.957-13.302-13.303-13.302s-13.303 5.956-13.303 13.303V470.9c0 7.347 5.957 13.303 13.303 13.303h133.03c6.995 0 12.72-5.405 13.25-12.267.032-.31.052-.65.052-1.036V342.01c0-22.01 17.905-39.914 39.914-39.914s39.915 17.906 39.915 39.914V470.9c0 .383.02.717.052 1.024.524 6.867 6.25 12.28 13.25 12.28h133.03c7.347 0 13.303-5.957 13.303-13.304V245.847c0-7.348-5.957-13.304-13.304-13.304z"/>
    </symbol>
    <symbol id="inclined-pendrive" viewBox="0 0 483.987 483.987">
      <path d="M230.444 340.54c-1.66-1.66-4.35-1.66-6.01 0l-81.49 81.486C132.13 432.843 117.75 438.8 102.453 438.8c-15.296 0-29.677-5.957-40.493-16.773-1.66-1.66-4.352-1.66-6.012 0-1.66 1.66-1.66 4.35 0 6.01C68.37 440.46 84.885 447.3 102.452 447.3c17.566 0 34.082-6.84 46.503-19.263l81.488-81.486c1.66-1.66 1.66-4.35 0-6.01z"/><path d="M478.81 93.64L390.347 5.176c-6.903-6.9-18.134-6.9-25.036 0l-77.847 77.85-12.69-12.69c-1.66-1.66-4.35-1.66-6.01 0L30.006 309.09C10.657 328.44 0 354.168 0 381.534s10.657 53.094 30.008 72.444c19.352 19.35 45.08 30.008 72.446 30.008 27.365 0 53.092-10.657 72.442-30.007l238.756-238.756c.797-.797 1.245-1.878 1.245-3.005 0-1.128-.448-2.21-1.245-3.006l-12.69-12.69 77.848-77.848c6.902-6.903 6.902-18.134 0-25.036zM371.32 11.187c3.59-3.587 9.428-3.587 13.017 0l41.227 41.227-84.355 84.355-47.735-47.734 77.846-77.85zm-202.435 436.78c-17.745 17.746-41.337 27.52-66.432 27.52-25.096 0-48.69-9.774-66.436-27.52C18.273 430.222 8.5 406.63 8.5 381.534c0-25.095 9.772-48.688 27.518-66.433l196.384-196.383 19.184 19.185L144.3 245.187c-1.66 1.66-1.66 4.35 0 6.01.83.83 1.916 1.246 3.004 1.246s2.175-.415 3.005-1.245L257.595 143.91 365.27 251.585 168.885 447.968zM371.28 245.574L238.414 112.706l14.262-14.262 38.402 38.4c.83.83 1.918 1.246 3.005 1.246s2.175-.415 3.005-1.245c1.66-1.66 1.66-4.35 0-6.01l-38.402-38.402 13.082-13.082 132.87 132.87-33.356 33.353zM472.8 112.665l-77.85 77.848-47.732-47.733 84.355-84.355 41.225 41.225c3.59 3.588 3.59 9.427 0 13.015z"/><path d="M358.178 88.395c.83.83 1.917 1.245 3.005 1.245 1.087 0 2.175-.415 3.005-1.245l32.342-32.34c.797-.798 1.245-1.88 1.245-3.006 0-1.13-.448-2.21-1.245-3.006L380.676 34.19c-1.66-1.66-4.35-1.66-6.01 0l-32.342 32.34c-.797.797-1.245 1.878-1.245 3.005s.447 2.208 1.244 3.005l15.854 15.855zm19.493-45.19l9.844 9.843-26.33 26.33-9.845-9.844 26.33-26.33zM433.944 87.457c-1.66-1.66-4.35-1.66-6.01 0L395.59 119.8c-1.66 1.66-1.66 4.35 0 6.01l15.853 15.853c.797.797 1.878 1.245 3.005 1.245s2.208-.448 3.005-1.245l32.342-32.342c.797-.796 1.245-1.877 1.245-3.004s-.448-2.208-1.245-3.005l-15.853-15.853zm-19.493 45.19l-9.842-9.843 26.33-26.33 9.845 9.842-26.332 26.33zM75.646 324.1c1.077 0 2.155-.407 2.982-1.222l38.974-38.393c1.672-1.647 1.692-4.338.045-6.01-1.648-1.672-4.34-1.692-6.01-.045l-38.974 38.393c-1.672 1.647-1.692 4.338-.045 6.01.832.844 1.93 1.267 3.028 1.267z"/>
    </symbol>
    <symbol id="label" viewBox="0 0 295 295">
      <path d="M290.156 23.89c-.482-10.31-8.733-18.562-19.044-19.044L168.005.023c-5.62-.272-11.097 1.855-15.077 5.836L5.858 152.93C2.108 156.68 0 161.767 0 167.072s2.107 10.392 5.858 14.143l107.93 107.928c3.903 3.905 9.022 5.857 14.14 5.857 5.12 0 10.238-1.953 14.144-5.857l147.07-147.07c3.98-3.98 6.1-9.453 5.836-15.076L290.156 23.89zM252.48 76.087c-9.268 9.27-24.297 9.27-33.566 0s-9.27-24.298 0-33.567 24.298-9.27 33.567 0 9.27 24.297 0 33.567z"/>
    </symbol>
    <symbol id="law-book" viewBox="0 0 512 512">
      <path d="M443.733 0H102.4C78.507 0 59.733 18.773 59.733 42.667v426.667C59.733 493.227 78.507 512 102.4 512h341.333c5.12 0 8.533-3.413 8.533-8.533V8.533c0-5.12-3.413-8.533-8.533-8.533zM435.2 426.667H128v-409.6h42.667v76.8c0 3.413 1.707 5.973 5.12 6.827 2.56 1.707 5.973.853 8.533-.853l29.013-21.332 29.013 22.187c1.707.853 3.413 1.707 5.12 1.707s2.56 0 3.413-.853c3.412-1.708 5.12-4.268 5.12-7.68v-76.8h179.2v409.597zm-196.267-409.6V76.8l-20.48-15.36c-1.707-.853-3.413-1.707-5.12-1.707s-3.413.853-5.12 1.707l-20.48 15.36V17.067h51.2zm-136.533 0h8.533v409.6H102.4c-.615 0-1.23.016-1.843.045-8.953.365-17.12 3.37-23.757 8.285V42.667c0-14.507 11.093-25.6 25.6-25.6zm332.8 477.866H102.4c-14.507 0-25.6-11.093-25.6-25.6 0-14.507 11.093-25.6 25.6-25.6h332.8v51.2z"/><path d="M102.4 469.333c0 5.12 3.413 8.533 8.533 8.533h290.133c5.12 0 8.533-3.413 8.533-8.533s-3.414-8.533-8.534-8.533H110.933c-5.12 0-8.533 3.413-8.533 8.533zM246.613 155.307c-25.6 0-35.84-12.8-35.84-13.653-1.707-1.707-4.267-3.413-6.827-3.413s-5.12.854-6.827 3.414l-17.068 25.6c-2.56 2.56-1.707 7.68.853 10.24 0 0 11.947 12.8 7.68 32.427l-1.707 5.12c-1.707 5.12-3.413 12.8-5.973 21.334-8.533 29.867 6.827 77.653 40.107 98.133.853 0 1.707.853 1.707.853l7.68 3.413c21.332 9.387 41.812 23.04 42.666 28.16 0 4.267 3.413 8.533 8.533 8.533 4.266 0 8.532-3.413 8.532-8.533.853-5.12 21.333-18.773 42.667-28.16l5.972-2.56.853-.853c32.427-20.48 48.64-69.12 40.107-98.987-1.707-8.533-4.267-16.213-5.973-21.333-.854-2.56-1.708-4.267-1.708-5.12-4.267-19.627 6.827-31.573 7.68-32.427 2.56-2.56 3.413-6.827.853-10.24l-17.067-25.6c-1.707-1.707-4.267-3.413-6.827-3.413s-5.12.853-6.826 3.413c-.853.853-10.24 13.653-35.84 13.653-21.333 0-25.6-9.387-25.6-10.24-.853-3.413-4.267-5.973-7.68-5.973-3.413-.853-7.68 2.56-8.533 5.973.003 0-3.41 10.24-25.597 10.24zm34.987 4.266c5.973 5.973 16.213 11.093 34.133 11.093 20.48 0 33.28-6.827 40.96-11.947l8.533 11.946c-5.12 7.68-11.947 23.04-7.68 42.667 0 0 .853 2.56 2.56 6.827 1.707 5.12 3.413 12.8 5.973 21.333 5.12 20.48-4.268 62.293-33.28 79.36l-6.828 3.413c-11.093 4.267-32.427 14.507-44.373 26.453-11.948-11.948-32.428-22.188-43.52-26.454l-6.828-3.413c-29.013-17.067-39.253-58.88-33.28-79.36 1.707-8.533 4.267-16.213 5.973-21.333.853-3.413 1.707-5.973 1.707-6.827 4.267-19.627-2.56-34.987-7.68-42.667l8.533-12.8c7.68 5.973 20.48 12.8 40.96 12.8 17.922 0 28.162-5.973 34.135-11.093z"/><path d="M222.72 226.987c-1.707 2.56-.853 5.973.853 8.533l21.333 29.013-5.973 32.427c0 3.413.853 6.827 3.413 8.533s5.973 2.56 8.533.853l30.72-14.507 30.72 14.506c.852.853 2.56.853 3.412.853 1.707 0 3.413-.854 5.12-1.708 2.56-1.707 4.267-5.12 3.413-8.533l-5.973-32.428 21.333-29.013c1.707-2.56 2.56-5.974.853-8.534-1.707-3.413-4.267-5.12-7.68-5.12h-29.013l-14.507-29.013c-2.56-5.973-12.8-5.973-15.36 0l-14.507 29.013H230.4c-3.413 0-5.973 2.56-7.68 5.12zm41.813 11.946c3.413 0 6.827-1.707 7.68-4.267l9.387-18.773 9.387 17.92c1.707 3.413 4.267 5.12 7.68 5.12h17.067l-12.8 17.92c-1.707 1.707-2.56 4.267-1.707 6.827l3.413 19.627-18.773-9.387c-2.56-.853-5.12-.853-7.68 0l-18.773 9.387 3.413-19.627c0-2.56 0-5.12-1.707-6.827l-13.653-17.92h17.066z"/>
    </symbol>
    <symbol id="left-chevron" viewBox="0 0 455 455">
      <path d="M0 0v455h455V0H0zm296.683 334.41l-21.248 21.18L147.762 227.5 275.435 99.41l21.248 21.18L190.12 227.5l106.563 106.91z"/>
    </symbol>
    <symbol id="mail" viewBox="0 0 59.018 59.018">
      <path d="M58.74 52.81l-5.97-6.245c1.747-1.92 2.82-4.458 2.82-7.25 0-5.954-4.842-10.797-10.795-10.797S34 33.362 34 39.314 38.843 50.11 44.796 50.11c2.442 0 4.69-.824 6.5-2.196l6 6.276c.196.206.46.31.723.31.248 0 .496-.093.69-.278.398-.38.413-1.014.03-1.413zM36 39.313c0-4.85 3.946-8.796 8.796-8.796s8.796 3.946 8.796 8.796-3.946 8.796-8.796 8.796S36 44.164 36 39.314z"/><path d="M25.37 28.372c1 .894 2.316 1.34 3.632 1.34 1.313 0 2.626-.445 3.625-1.336L56 7.736V28.52c0 .55.447 1 1 1s1-.45 1-1v-23c0-.01-.005-.016-.005-.024-.003-.11-.02-.223-.06-.33-.003-.008-.008-.013-.01-.02-.01-.026-.03-.046-.04-.07-.042-.083-.09-.158-.152-.225-.026-.027-.053-.05-.082-.076-.06-.054-.128-.1-.202-.137-.033-.017-.063-.035-.098-.048-.11-.043-.226-.072-.35-.072H1c-.124 0-.24.03-.35.07-.036.015-.066.032-.1.05-.072.037-.14.082-.202.136-.03.025-.056.05-.082.077-.06.068-.11.143-.15.225-.013.025-.03.045-.04.07-.003.007-.01.012-.012.02-.04.107-.057.22-.06.33 0 .008-.004.015-.004.023v39l.002.01c0 .106.017.213.053.318.004.013.013.022.018.034.013.034.033.062.05.094.04.075.083.144.138.205.028.03.056.056.087.082.06.054.127.097.2.135.034.017.064.037.1.05.112.043.23.07.353.07h30c.553 0 1-.447 1-1s-.447-1-1-1H3.88c4.547-3.603 14.8-11.78 20.068-16.4l1.42 1.255zM54.355 6.518L31.3 26.878c-1.268 1.133-3.332 1.132-4.603-.002L24.72 25.13c-.006-.007-.007-.016-.014-.023-.024-.027-.057-.038-.083-.062L3.643 6.518h50.713zM2 42.455V7.735l20.437 18.047C16.88 30.636 6.087 39.222 2 42.455z"/>
    </symbol>
    <symbol id="operator" viewBox="0 0 512.002 512.002">
      <path d="M424.395 299.953c-11.995-11.995-13.54-48.398-11.682-71.356.283-1.448.442-2.94.442-4.47v-91.5C413.155 59.498 353.658 0 280.525 0h-49.063C158.332 0 98.834 59.497 98.834 132.628v91.498c0 1.537.158 3.036.444 4.49 1.86 22.96.32 59.344-11.67 71.337-2.48 2.48-3.28 6.187-2.038 9.47 1.24 3.285 4.29 5.536 7.794 5.756.346.02 2.637.154 6.508.154 10 0 30.535-.892 55.233-6.896-37.896 19.347-62.77 58.65-62.77 102.61v92.025c0 4.93 3.997 8.93 8.928 8.93h309.472c4.933 0 8.93-4 8.93-8.93v-92.025c0-43.964-24.885-83.27-62.793-102.616 24.713 6.012 45.26 6.904 55.262 6.903 3.868-.002 6.16-.136 6.507-.157 3.504-.22 6.554-2.472 7.795-5.754 1.24-3.283.44-6.99-2.04-9.47zM116.69 132.628h.002c0-63.284 51.485-114.77 114.77-114.77h49.064c63.284 0 114.77 51.486 114.77 114.77v15.138c-1.724-.41-3.512-.65-5.36-.65h-7.09c-1.848 0-3.635.24-5.357.65v-11.32c0-56.8-46.21-103.01-103.01-103.01h-36.975c-56.8 0-103.01 46.21-103.01 103.01v11.32c-1.722-.41-3.51-.65-5.355-.65h-7.092c-1.847 0-3.634.24-5.358.65v-15.138zm273.25 96.856h-7.093c-2.953 0-5.356-2.404-5.356-5.358v-53.794c0-2.954 2.405-5.358 5.357-5.358h7.092c2.953 0 5.357 2.404 5.357 5.358v52.65c-.065.64-.155 1.548-.252 2.685-.668 2.2-2.692 3.817-5.106 3.817zm4.237 18.56c-2.862 9.354-10.987 16.033-20.63 17.125 1.8-5.988 3.012-12.202 3.572-18.572 1.835.468 3.746.744 5.726.744h7.092c1.448 0 2.86-.15 4.233-.405l.007 1.108zM134.5 170.332v53.795c0 2.954-2.404 5.358-5.357 5.358h-7.092c-2.413 0-4.435-1.616-5.103-3.815-.1-1.137-.187-2.045-.254-2.685V170.33c0-2.953 2.404-5.357 5.358-5.357h7.093c2.953 0 5.356 2.404 5.356 5.358zM110 297.148c6.247-15.227 7.787-34.824 7.82-50.21 1.374.255 2.783.406 4.228.406h7.092c1.98 0 3.89-.276 5.727-.744 1.43 16.252 7.076 31.502 16.01 44.473-16.283 3.942-30.7 5.5-40.876 6.074zm42.356-73.02V136.44c0-46.95 38.2-85.15 85.15-85.15h36.975c46.953 0 85.15 38.198 85.15 85.15v27.404l-39.53-55.34c-1.712-2.398-4.456-3.81-7.44-3.738-2.946.058-5.673 1.564-7.29 4.027-36.396 55.437-87.708 98.88-148.39 125.633l-4.624 2.04v-12.342zm249.45 186.92v83.094H110.19v-83.094c0-38.226 22.258-72.278 55.854-88.08v70.485c0 26.353 21.44 47.792 47.79 47.792h84.32c26.344 0 47.778-21.44 47.778-47.79v-70.49c33.605 15.8 55.87 49.855 55.87 88.084zm-145.81-15.09c-4.93 0-8.928 3.997-8.928 8.928v18.5h-33.233c-16.505 0-29.932-13.428-29.932-29.933v-72.98c4.387 2.318 9 4.31 13.815 5.93l41.14 13.85c5.524 1.86 11.33 2.79 17.134 2.79 5.805 0 11.61-.93 17.135-2.79l41.14-13.85c4.814-1.62 9.422-3.61 13.807-5.927v72.975c0 16.505-13.42 29.932-29.92 29.932h-33.227v-18.5c0-4.93-3.997-8.926-8.93-8.926zm98.632-130.612h-64.24c-4.932 0-8.928 3.998-8.928 8.93 0 4.93 3.997 8.928 8.93 8.928h54.393c-8.904 11.955-21.37 21.277-36.213 26.274l-41.14 13.85c-7.376 2.48-15.5 2.48-22.873 0l-41.14-13.85c-25.118-8.456-43.444-29.276-49.166-54.33l9.936-4.38c59.884-26.4 111.094-68.25 148.814-121.476l46.63 65.282v43.842c0 9.412-1.76 18.508-5.002 26.93zm6.483 25.726c1.75-2.54 3.38-5.16 4.872-7.868h4.783c9.426 0 18.246-3.094 25.377-8.42 1.2 7.824 3.057 15.543 5.865 22.38-10.16-.567-24.564-2.126-40.896-6.09z"/>
    </symbol>
    <symbol id="pen" viewBox="0 0 512.002 512.002">
      <path d="M509.015 31.078l-28.092-28.09c-3.983-3.983-10.44-3.983-14.425 0l-42.03 42.03-3.96-3.963c-3.984-3.983-10.442-3.983-14.426 0L77.96 369.175c-20.562 20.562-36.244 44.762-46.61 71.93l-13.97 36.61c-.39 1.02-.592 2.073-.645 3.126L2.987 494.59c-3.983 3.983-3.983 10.44 0 14.425C4.98 511.005 7.59 512 10.2 512s5.22-.994 7.21-2.986l13.744-13.743c1.055-.05 2.11-.258 3.13-.647l36.612-13.97c27.167-10.368 51.367-26.05 71.93-46.612l287.327-287.326c1.9 8.382-3.19 22.793-15.458 35.06l-86.47 86.472c-3.984 3.983-3.984 10.44 0 14.425 1.99 1.993 4.6 2.988 7.21 2.988 2.61 0 5.222-.995 7.213-2.987l86.47-86.47c10.295-10.295 17.556-22.6 20.445-34.653 2.77-11.554 1.226-22.215-4.176-30.067l25.56-25.56c3.984-3.983 3.984-10.44 0-14.425l-3.962-3.962 42.03-42.03c3.982-3.983 3.982-10.442 0-14.425zM128.403 419.616c-18.518 18.518-40.312 32.64-64.78 41.977l-21.37 8.156 8.155-21.373c9.336-24.466 23.46-46.26 41.977-64.778l11.056-11.056 36.018 36.017-11.055 11.056zm25.478-25.48l-36.016-36.016 295.43-295.43 36.017 36.018-295.43 295.43zM452.56 73.11L438.893 59.44l34.817-34.816 13.667 13.667L452.56 73.11z"/>
    </symbol>
    <symbol id="phone-call" viewBox="0 0 512 512">
      <path d="M492.557 400.56L392.234 300.238c-11.976-11.975-31.458-11.975-43.435 0l-26.09 26.088c-8.173 8.174-10.757 19.845-7.772 30.24l-9.843 9.844-.008.008c-6.99 6.998-50.523-3.74-103.145-56.363-52.614-52.613-63.356-96.14-56.366-103.142 0-.002.002-.002.002-.002l9.852-9.85c2.78.8 5.65 1.207 8.523 1.207 7.865 0 15.73-2.993 21.718-8.98l26.09-26.088c11.974-11.976 11.974-31.46 0-43.435L111.435 19.44c-5.8-5.8-13.513-8.993-21.716-8.993-8.205 0-15.915 3.196-21.716 8.994l-26.09 26.09c-8.174 8.175-10.758 19.847-7.773 30.242 0 0-8.343 8.424-8.758 8.956-27.753 30.85-32.96 79.418-14.56 137.487 18.016 56.857 56.856 117.088 109.366 169.595 52.508 52.508 112.74 91.348 169.596 109.367 22.84 7.237 44.207 10.823 63.61 10.823 31.813 0 58.337-9.648 77.35-28.66l5.474-5.474c2.74.788 5.602 1.213 8.532 1.213 8.205 0 15.917-3.197 21.716-8.995l26.09-26.09c11.975-11.975 11.975-31.46 0-43.435zM89.72 41.157l100.324 100.325-26.074 26.102-.014-.014-.375-.375-49.786-49.787-50.163-50.16 26.09-26.09zm319.31 420.466l-.006.005c-22.094 22.09-61.146 25.74-109.96 10.27-52.253-16.558-108.066-52.714-157.157-101.806C92.814 321 56.657 265.19 40.1 212.936c-15.47-48.817-11.82-87.87 10.276-109.967l.002-.003 2.77-2.77 77.857 77.856-7.14 7.14-.016.018c-29.586 29.623 5.962 96.148 56.377 146.563 37.734 37.734 84.493 67.14 118.05 67.14 11.285 0 21.077-3.325 28.53-10.778l.007-.008 7.133-7.133 77.857 77.856-2.775 2.773zm35.722-13.255L344.428 348.044l26.088-26.088L470.84 422.278s-26.08 26.1-26.088 26.09zM388.818 123.184c-29.21-29.21-68.042-45.294-109.344-45.293-8.48 0-15.356 6.876-15.356 15.357 0 8.48 6.876 15.356 15.356 15.356 33.1-.002 64.22 12.89 87.628 36.297 23.406 23.406 36.295 54.525 36.294 87.624 0 8.48 6.875 15.358 15.356 15.358 8.48 0 15.356-6.875 15.356-15.354 0-41.304-16.085-80.135-45.29-109.344z"/><path d="M443.895 68.107C399.972 24.187 341.578-.003 279.468 0c-8.48 0-15.356 6.876-15.356 15.356s6.876 15.356 15.356 15.356c53.907-.002 104.588 20.992 142.71 59.11 38.117 38.12 59.11 88.8 59.11 142.707 0 8.48 6.874 15.355 15.355 15.355 8.48 0 15.356-6.875 15.356-15.354 0-62.11-24.187-120.503-68.105-164.423zM333.737 178.26c-14.706-14.706-33.465-22.477-54.256-22.477h-.005c-8.48.002-15.356 6.876-15.354 15.358.003 8.482 6.88 15.357 15.36 15.355h.004c12.644 0 23.593 4.536 32.54 13.48 8.818 8.82 13.48 20.076 13.478 32.545-.002 8.48 6.875 15.356 15.354 15.358h.002c8.48 0 15.354-6.875 15.356-15.354 0-20.792-7.77-39.556-22.477-54.264z"/>
    </symbol>
    <symbol id="point-of-service" viewBox="0 0 60 60">
      <path d="M53.796 8H43V5.733C43 2.573 40.428 0 37.267 0H8.733C5.573 0 3 2.572 3 5.733v48.533C3 57.428 5.572 60 8.733 60h28.534C40.427 60 43 57.428 43 54.267V42h10.796C55.563 42 57 40.563 57 38.797V11.203C57 9.437 55.563 8 53.796 8zM41 54.267C41 56.325 39.325 58 37.267 58H8.733C6.675 58 5 56.325 5 54.267V5.733C5 3.675 6.675 2 8.733 2h28.534C39.325 2 41 3.675 41 5.733V54.267zM43 40V10h2v30h-2zm4 0V10h2v30h-2zm8-1.203C55 39.46 54.46 40 53.796 40H51V10h2.796c.664 0 1.204.54 1.204 1.203v27.594z"/><circle cx="53" cy="14" r="1"/><circle cx="53" cy="19" r="1"/><path d="M8 22h30V9H8v13zm2-11h26v9H10v-9zM14 7c.552 0 1-.447 1-1s-.448-1-1-1H8c-.552 0-1 .447-1 1s.448 1 1 1h6zM9 31h8v-7H9v7zm2-5h4v3h-4v-3zM19 31h8v-7h-8v7zm2-5h4v3h-4v-3zM29 31h8v-7h-8v7zm2-5h4v3h-4v-3zM9 39h8v-7H9v7zm2-5h4v3h-4v-3zM19 39h8v-7h-8v7zm2-5h4v3h-4v-3zM29 39h8v-7h-8v7zm2-5h4v3h-4v-3zM9 47h8v-7H9v7zm2-5h4v3h-4v-3zM19 47h8v-7h-8v7zm2-5h4v3h-4v-3zM9 56h8v-7H9v7zm2-5h4v3h-4v-3zM19 56h8v-7h-8v7zm2-5h4v3h-4v-3zM29 56h8V40h-8v16zm2-14h4v12h-4V42z"/><path d="M20.382 12.077c-.244-.1-.52-.1-.764 0-.123.05-.233.124-.326.217l-1 1c-.39.39-.39 1.022 0 1.413.196.195.452.293.708.293v3c0 .553.448 1 1 1s1-.447 1-1v-5c0-.13-.027-.26-.077-.382-.1-.245-.296-.44-.54-.54zM29.382 12.077c-.244-.1-.52-.1-.764 0-.123.05-.233.124-.326.217l-1 1c-.39.39-.39 1.022 0 1.413.196.195.452.293.708.293v3c0 .553.448 1 1 1s1-.447 1-1v-5c0-.13-.027-.26-.077-.382-.1-.245-.296-.44-.54-.54zM33.382 12.077c-.244-.1-.52-.1-.764 0-.123.05-.233.124-.326.217l-1 1c-.39.39-.39 1.022 0 1.413.196.195.452.293.708.293v3c0 .553.448 1 1 1s1-.447 1-1v-5c0-.13-.027-.26-.077-.382-.1-.245-.296-.44-.54-.54zM24.293 16.293l-1 1c-.39.39-.39 1.023 0 1.414.195.195.45.293.707.293s.512-.098.707-.293l1-1c.39-.39.39-1.023 0-1.414s-1.023-.39-1.414 0z"/>
    </symbol>
    <symbol id="pointed-star" viewBox="0 0 406.125 406.125">
      <path d="M260.133 155.967c-4.487 0-9.25-3.463-10.64-7.73l-43.92-135.162c-1.39-4.268-3.632-4.268-5.022 0l-43.91 135.162c-1.39 4.268-6.153 7.73-10.64 7.73H3.88c-4.487 0-5.186 2.138-1.553 4.78l114.97 83.52c3.634 2.643 5.455 8.243 4.065 12.51l-43.91 135.155c-1.39 4.268.43 5.592 4.064 2.95l114.97-83.52c3.634-2.642 9.52-2.642 13.153 0l114.97 83.53c3.633 2.64 5.454 1.316 4.064-2.952l-43.91-135.154c-1.39-4.268.43-9.868 4.063-12.51l114.97-83.52c3.634-2.643 2.935-4.78-1.552-4.78H260.133v-.01z" fill="#010002"/>
    </symbol>
    <symbol id="police" viewBox="0 0 512 512">
      <path d="M459.917 176.552c-3.53-7.945-6.18-15.007-7.945-22.07-10.593-49.434 22.07-86.51 22.07-86.51 2.647-2.647 2.647-7.944 0-11.475L429.9 3.53C428.14.884 425.49 0 422.843 0c-2.65 0-5.298 1.766-7.063 4.414 0 .883-19.422 30.897-80.332 30.897-60.028 0-70.62-28.247-71.503-29.13C263.062 2.648 259.53 0 256 0c-3.53 0-7.062 2.648-7.945 6.18-.883.882-11.476 29.13-71.503 29.13-60.91 0-80.33-30.014-80.33-30.897C94.454 1.766 91.806 0 89.158 0s-6.18.883-7.063 3.53L37.96 56.498c-3.532 3.53-2.65 7.945 0 11.476 0 0 32.66 36.193 22.068 86.51-1.766 7.062-4.414 14.124-7.945 22.07-6.18 12.358-15.89 42.37-16.772 106.813 0 7.062.884 15.007 1.767 22.07v.882c11.476 51.2 45.02 93.572 92.69 117.407l16.772 7.945c41.49 17.655 100.633 51.2 100.633 71.503 0 5.297 3.53 8.828 8.828 8.828s8.83-3.53 8.83-8.827c0-20.303 59.144-53.848 101.516-71.503l15.89-7.945c47.67-23.835 81.214-66.207 92.69-117.407v-.883c.883-7.062 1.766-15.007 1.766-22.07-.885-64.44-10.595-94.455-16.775-106.813zM457.27 303.67c-9.71 45.02-40.608 83.86-82.98 105.047l-15.89 7.945c-15.007 6.18-78.565 34.428-102.4 65.324-23.834-30.897-87.393-59.145-102.4-65.324l-15.89-7.945c-42.372-21.186-73.27-60.028-82.98-105.93-.882-6.18-1.765-12.36-1.765-18.54.883-63.558 10.593-90.923 15.007-99.75 4.414-9.71 7.062-17.656 8.828-26.484 10.593-46.786-10.593-82.097-21.186-96.22L88.276 22.95c11.476 11.477 37.96 30.015 88.276 30.015 45.903 0 68.855-15.89 79.448-28.248 10.593 12.36 33.545 28.248 79.448 28.248 50.317 0 76.8-18.538 88.276-30.014l32.662 39.725c-9.71 14.124-30.897 49.435-21.186 96.22 1.766 8.83 4.414 17.656 8.828 26.484 4.414 8.827 14.124 36.192 15.007 99.75 0 5.298 0 11.477-1.766 18.54z"/><path d="M408.717 163.31c-7.062-31.78-4.414-65.324 5.297-89.16 1.766-3.53.883-7.06-1.766-9.71-2.648-2.647-6.18-3.53-9.71-1.765h-.883c-18.538 7.945-37.076 16.772-66.207 16.772-30.897 0-55.614-5.297-75.034-16.772-2.648-1.766-6.18-1.766-8.828 0-19.42 11.476-44.138 16.772-75.034 16.772-29.13 0-47.67-8.828-66.207-16.772h-.883c-3.53-1.766-7.062-.883-9.71 1.766-2.648 2.65-3.53 6.18-1.766 10.594 10.593 23.834 12.36 57.38 5.297 89.16-2.648 10.592-6.18 20.302-11.476 31.778-1.766 3.53-11.476 26.483-12.36 88.276 0 3.53 0 7.945 1.767 11.476v.883c7.945 37.96 33.545 69.738 68.855 87.393l15.006 7.945c36.193 15.89 64.44 31.78 85.628 47.67 1.766.882 3.53 1.765 5.297 1.765 1.766 0 3.532-.883 6.18-2.648 20.303-15.89 49.434-31.78 85.628-47.67L362.814 384c35.31-18.538 60.91-50.317 68.855-88.276.882-4.414.882-10.593.882-14.124-.883-58.262-9.71-81.214-12.36-86.51-5.295-10.593-8.826-21.187-11.475-31.78zm5.297 128.883c-7.945 32.662-29.13 60.91-60.028 75.917l-14.124 7.062c-34.428 15.007-62.676 30.014-83.862 45.903-22.07-15.007-50.317-30.897-83.862-45.02l-15.007-7.063c-30.013-15.007-52.082-42.372-59.144-75.034v-.883c-.883-2.648-.883-5.297-.883-7.945.883-60.028 10.593-80.33 10.593-81.214 5.297-12.36 9.71-24.717 12.36-36.193 6.178-27.365 6.178-56.497 0-81.214C135.06 91.805 153.6 97.1 176.55 97.1c31.78 0 58.262-6.18 79.448-16.772 21.186 11.476 47.67 16.772 79.448 16.772 22.952 0 41.49-5.297 56.497-11.476-6.18 24.717-6.18 53.848 0 81.214 2.648 12.36 6.18 23.834 12.36 36.193 1.765 3.53 9.71 22.952 10.592 79.448 0 3.534 0 7.948-.883 9.713z"/><path d="M256 141.24c-58.262 0-105.93 47.67-105.93 105.932s47.668 105.93 105.93 105.93 105.93-47.668 105.93-105.93c0-58.262-47.668-105.93-105.93-105.93zm0 194.208c-48.552 0-88.276-39.724-88.276-88.276s39.724-88.276 88.276-88.276 88.276 39.724 88.276 88.276-39.724 88.276-88.276 88.276z"/><path d="M288.662 223.338c-3.53-3.53-8.828-3.53-12.36 0L256 243.64l-20.303-20.302c-3.53-3.53-8.828-3.53-12.36 0l-26.482 26.483c-3.53 3.532-3.53 8.83 0 12.36 3.53 3.53 8.828 3.53 12.36 0l20.302-20.303 20.303 20.303c3.53 3.53 8.828 3.53 12.36 0l20.302-20.303 20.303 20.303c1.766 1.766 3.53 2.648 6.18 2.648s4.413-.883 6.178-2.648c3.53-3.53 3.53-8.828 0-12.36l-26.48-26.482z"/>
    </symbol>
    <symbol id="right-chevron" viewBox="0 0 455 455">
      <path d="M0 0v455h455V0H0zm179.565 355.59l-21.248-21.18L264.88 227.5 158.317 120.59l21.248-21.18L307.237 227.5 179.565 355.59z"/>
    </symbol>
    <symbol id="shield" viewBox="0 0 502 502">
      <path d="M485.5 64.952c-.105-3.066-1.612-5.915-4.09-7.727-2.475-1.81-5.647-2.386-8.6-1.558-19.983 5.6-40.722 8.438-61.64 8.438-57.996 0-113.264-21.81-155.623-61.41-3.843-3.594-9.814-3.594-13.658 0-42.36 39.6-97.63 61.41-155.624 61.41-19.408 0-38.69-2.445-57.313-7.268-2.942-.763-6.07-.145-8.5 1.676-2.432 1.82-3.904 4.648-4 7.685-.174 5.39-.26 10.815-.26 16.125 0 84.786 21.782 168.458 62.994 241.974 39.944 71.254 97.497 132.16 166.435 176.134 1.64 1.047 3.51 1.57 5.378 1.57 1.87 0 3.738-.523 5.378-1.57 68.938-43.973 126.49-104.88 166.435-176.133 41.212-73.515 62.995-157.188 62.995-241.974-.002-5.64-.105-11.485-.307-17.37zM251 480.09C116.362 391.702 36.19 243.494 36.19 82.325c0-1.09.004-2.184.012-3.282 16.407 3.363 33.194 5.064 50.063 5.064 60.012 0 117.342-21.47 162.452-60.646 45.11 39.176 102.44 60.647 162.45 60.647 18.442 0 36.76-2.03 54.62-6.047.012 1.434.02 2.855.02 4.265 0 161.17-80.173 309.377-214.81 397.765z"/><path d="M179.492 99.68c-1.74-5.24-7.4-8.077-12.643-6.335-25.365 8.428-51.898 12.274-78.872 11.448-5.493-.17-10.133 4.167-10.303 9.687-.17 5.52 4.167 10.133 9.687 10.303 2.606.08 5.207.12 7.805.12 26.64 0 52.84-4.222 77.99-12.578 5.24-1.743 8.077-7.404 6.335-12.644zM208.546 96.1c1.615 0 3.253-.39 4.77-1.217 8.397-4.57 16.622-9.685 24.445-15.204 4.514-3.184 5.592-9.423 2.408-13.937-3.183-4.513-9.423-5.592-13.936-2.407-7.194 5.075-14.756 9.778-22.477 13.98-4.85 2.64-6.643 8.712-4.003 13.563 1.816 3.333 5.25 5.22 8.794 5.22zM359.927 162.93l-133.43 133.43-67.428-67.43c-3.906-3.905-10.238-3.905-14.144 0-3.905 3.905-3.905 10.237 0 14.143l74.5 74.5c1.953 1.953 4.512 2.93 7.07 2.93 2.56 0 5.12-.977 7.072-2.93l140.5-140.5c3.905-3.905 3.905-10.237 0-14.143-3.904-3.905-10.236-3.905-14.14 0z"/>
    </symbol>
    <symbol id="siren" viewBox="0 0 512 512">
      <path d="M434.746 392.753l-20.88-269.02c-2.56-35.84-33.28-64-69.12-64H167.254c-35.84 0-66.56 28.16-69.12 64L77.243 392.88c-10.062 1.752-17.51 10.257-17.51 20.134v77.653c0 11.947 9.387 21.333 21.333 21.333h349.867c11.947 0 21.333-9.387 22.187-20.48v-77.653c0-10.938-7.877-19.707-18.374-21.114zm-212.88-17.286h68.268v17.067h-68.267v-17.067zm5.12-128.854c-13.652-9.387-22.186-24.747-22.186-41.813 0-28.16 23.04-51.2 51.2-51.2s51.2 23.04 51.2 51.2c0 17.067-8.533 32.427-22.187 41.813l-3.413 2.56v40.96h-17.067v-76.8H281.6c5.12 0 8.533-3.413 8.533-8.533 0-5.12-3.413-8.533-8.533-8.533h-17.067V179.2c0-5.12-3.413-8.533-8.533-8.533-5.12 0-8.533 3.413-8.533 8.533v17.067H230.4c-5.12 0-8.533 3.413-8.533 8.533 0 5.12 3.413 8.533 8.533 8.533h17.067v76.8H230.4v-40.96l-3.413-2.56zm71.68 60.587h8.534c5.12 0 8.533 3.413 8.533 8.533s-3.413 8.533-8.533 8.533H204.8c-5.12 0-8.533-3.413-8.533-8.533s3.413-8.533 8.533-8.533h93.867zm-8.533 34.133V358.4h-68.267v-17.067h68.267zM115.2 124.587c1.707-26.453 24.747-47.787 52.053-47.787h177.493c27.307 0 50.347 21.333 52.053 47.787l20.48 267.947H307.2v-17.067h8.533c5.12 0 8.533-3.413 8.533-8.533s-3.413-8.533-8.533-8.533H307.2v-17.066c14.507 0 25.6-11.093 25.6-25.6 0-14.507-11.093-25.6-25.6-25.6h-8.533v-32.427c16.213-12.8 25.6-32.427 25.6-52.907 0-37.547-30.72-68.267-68.267-68.267s-68.267 30.72-68.267 68.267c0 20.48 9.387 40.107 25.6 52.907v32.427H204.8c-14.507 0-25.6 11.093-25.6 25.6 0 14.507 11.093 25.6 25.6 25.6V358.4h-8.533c-5.12 0-8.533 3.413-8.533 8.533s3.413 8.533 8.533 8.533h8.533v17.067H94.72l20.48-267.946zm320.853 366.08c0 2.56-1.707 4.267-4.267 4.267h-39.253v-25.6c0-5.12-3.413-8.533-8.533-8.533s-8.533 3.414-8.533 8.534v25.6h-25.6v-25.6c0-5.12-3.413-8.533-8.533-8.533s-8.533 3.414-8.533 8.534v25.6h-25.6v-25.6c0-5.12-3.412-8.533-8.532-8.533s-8.533 3.414-8.533 8.534v25.6h-25.6v-25.6c0-5.12-3.413-8.533-8.533-8.533-5.12 0-8.533 3.414-8.533 8.534v25.6h-25.6v-25.6c0-5.12-3.414-8.533-8.534-8.533s-8.533 3.414-8.533 8.534v25.6h-25.6v-25.6c0-5.12-3.413-8.533-8.533-8.533-5.12 0-8.533 3.414-8.533 8.534v25.6h-25.6v-25.6c0-5.12-3.413-8.533-8.533-8.533s-8.533 3.414-8.533 8.534v25.6h-38.4c-2.56 0-4.266-1.707-4.266-3.413V413.87c0-2.56 1.707-4.267 4.267-4.267h353.413c.983.745 1.57 1.93 1.57 3.414v77.653zM409.6 59.733c2.56 0 4.267-.853 5.973-2.56l25.6-25.6c3.413-3.413 3.413-8.533 0-11.947s-8.533-3.413-11.947 0l-25.6 25.6c-3.413 3.413-3.413 8.533 0 11.947 1.707 1.707 3.414 2.56 5.974 2.56zM247.467 42.667c5.12 0 8.533-3.413 8.533-8.533v-25.6C256 3.414 252.587 0 247.467 0s-8.533 3.413-8.533 8.533v25.6c0 5.12 3.413 8.534 8.533 8.534zM435.2 196.267c0 5.12 3.413 8.533 8.533 8.533h25.6c5.12 0 8.533-3.413 8.533-8.533s-3.413-8.533-8.533-8.533h-25.6c-5.12 0-8.533 3.413-8.533 8.533zM486.4 324.267h-25.6c-5.12 0-8.533 3.413-8.533 8.533 0 5.12 3.413 8.533 8.533 8.533h25.6c5.12 0 8.533-3.413 8.533-8.533 0-5.12-3.413-8.533-8.533-8.533zM87.893 65.707c1.707 1.707 3.413 2.56 5.973 2.56s4.267-.853 5.973-2.56c3.412-3.413 3.412-8.533 0-11.947l-25.6-25.6c-3.414-3.413-8.534-3.413-11.948 0s-3.413 8.533 0 11.947l25.6 25.6zM42.667 204.8h25.6c5.12 0 8.533-3.413 8.533-8.533s-3.413-8.533-8.533-8.533h-25.6c-5.12 0-8.533 3.413-8.533 8.533s3.413 8.533 8.533 8.533zM51.2 324.267H25.6c-5.12 0-8.533 3.413-8.533 8.533 0 5.12 3.413 8.533 8.533 8.533h25.6c5.12 0 8.533-3.413 8.533-8.533 0-5.12-3.413-8.533-8.533-8.533z"/>
    </symbol>
    <symbol id="smartphone" viewBox="0 0 512 512">
      <path d="M256.002 418.133c-15.662 0-28.404 12.74-28.404 28.403s12.742 28.403 28.404 28.403 28.403-12.742 28.403-28.404-12.742-28.403-28.403-28.403zm0 37.136c-4.816 0-8.734-3.92-8.734-8.734s3.918-8.733 8.734-8.733c4.815 0 8.733 3.918 8.733 8.733-.002 4.815-3.92 8.733-8.733 8.733zM302.587 40.447h-50.403c-5.734 0-10.382 4.648-10.382 10.382 0 5.733 4.65 10.38 10.382 10.38h50.403c5.734 0 10.382-4.647 10.382-10.38 0-5.735-4.65-10.383-10.383-10.383z"/><circle cx="220.312" cy="51.085" r="10.899"/><path d="M377.1 0H134.9c-18.078 0-32.785 14.707-32.785 32.784v446.43c0 18.078 14.707 32.785 32.784 32.785h242.2c18.077 0 32.784-14.708 32.784-32.785V32.785C409.884 14.706 395.178 0 377.1 0zm10.93 479.216c0 6.026-4.903 10.928-10.93 10.928H134.9c-6.027 0-10.93-4.902-10.93-10.928V32.784c0-6.026 4.903-10.928 10.93-10.928h242.2c6.026 0 10.928 4.902 10.928 10.928v446.432z"/><path d="M274.418 205.204c-4.27-4.266-11.186-4.266-15.456 0L206.468 257.7c-4.267 4.266-4.267 11.186 0 15.454 2.135 2.134 4.932 3.202 7.728 3.202s5.594-1.068 7.727-3.2l52.494-52.496c4.268-4.268 4.268-11.188 0-15.456zM305.532 235.626c-4.268-4.266-11.186-4.266-15.456 0l-20.912 20.912c-4.266 4.267-4.266 11.187 0 15.456 2.135 2.133 4.932 3.2 7.728 3.2s5.593-1.067 7.727-3.2l20.91-20.912c4.27-4.268 4.27-11.188.002-15.456z"/><path d="M355.366 80.892h-198.73c-5.432 0-9.835 4.403-9.835 9.835v301.275c0 5.432 4.404 9.835 9.836 9.835h198.73c5.432 0 9.835-4.403 9.835-9.835V90.727c0-5.43-4.402-9.835-9.834-9.835zm-9.836 301.275H166.47V100.563h179.06v281.604z"/>
    </symbol>
    <symbol id="user" viewBox="0 0 512 512">
      <path d="M374.45 332.463c-.407-.044-59.344 1.695-68.107-61.463 9.737-6.794 18.71-15.614 26.617-26.316 15.38-20.82 25.29-46.938 28.82-75.19 1.213-1.096 2.217-2.46 2.893-4.07 6.387-15.215 9.626-31.46 9.626-48.29C374.3 52.548 325.577 0 265.687 0c-15.663 0-30.86 3.608-45.21 10.733-5.476.418-10.84 1.38-15.986 2.867-24.597 7.107-44.613 25.344-56.362 51.354-11.406 25.254-13.654 54.983-6.328 83.712 1.548 6.07 3.516 12.033 5.85 17.73.632 1.542 1.574 2.857 2.705 3.94 5.718 44.094 26.7 80.63 55.307 100.576-8.79 63.265-67.706 61.51-68.112 61.553-42.382 1.438-76.425 36.34-76.425 79.067v88.94c0 6.368 5.16 11.53 11.528 11.53H439.346c6.366 0 11.53-5.162 11.53-11.53v-88.94c-.002-42.728-34.042-77.632-76.426-79.07zM210.893 35.75c4.207-1.215 8.65-1.936 13.206-2.14 1.69-.077 3.343-.524 4.842-1.312 11.67-6.132 24.035-9.24 36.747-9.24 47.173 0 85.553 42.202 85.553 94.077 0 1.557-.044 3.106-.112 4.65-9.15-9.293-21.862-15.068-35.9-15.068h-78.572c-4.675 0-9.112-1.468-12.833-4.246-3.177-2.37-5.633-5.557-7.1-9.215-2.272-5.658-7.874-9.197-13.972-8.814-6.12.39-11.27 4.64-12.816 10.58-4.553 17.496-13.632 33.612-26.088 46.68-11.59-47.698 9.326-95.052 47.043-105.95zm-10.03 199.39c-15-18.326-24.825-43.073-27.94-70.166 14.548-12.965 26.048-29.1 33.535-46.995 1.136 1.047 2.33 2.038 3.575 2.97 7.736 5.772 16.942 8.825 26.626 8.825h78.57c11.117 0 20.7 6.668 24.975 16.21 0 .083-.013.16-.013.243 0 65.078-37.76 118.023-84.174 118.023-20.2.002-39.79-10.337-55.155-29.11zm26.49 47.093c9.138 3.307 18.75 5.076 28.665 5.076 9.835 0 19.444-1.713 28.643-5.016 4.222 21.99 16.45 41.158 33.528 54.353l-60.535 86.208c-.395.563-.944.848-1.632.848-.686 0-1.235-.286-1.63-.847l-60.55-86.228c17.08-13.21 29.304-32.39 33.512-54.395zm200.464 206.71H84.183V411.53c0-30.922 25.157-56.08 56.08-56.08.42 0 18.97-.45 33.628-7.11l61.63 87.765c4.684 6.672 12.348 10.655 20.5 10.655s15.817-3.983 20.5-10.655l61.62-87.752c16.716 7.1 33.18 7.1 33.6 7.1 30.92 0 56.077 25.156 56.077 56.078v77.413z"/>
    </symbol></svg>